<?xml version="1.0" encoding="utf-8"?>
<!-- Generator: Adobe Illustrator 27.5.0, SVG Export Plug-In . SVG Version: 6.00 Build 0)  -->
<svg version="1.1" id="Background" xmlns="http://www.w3.org/2000/svg" xmlns:xlink="http://www.w3.org/1999/xlink" x="0px" y="0px"
	 viewBox="0 0 1200 1200" style="enable-background:new 0 0 1200 1200;" xml:space="preserve">
<g>
	<defs>
		<rect id="SVGID_1_" width="1200" height="1200"/>
	</defs>
	<clipPath id="SVGID_00000164488156472521626810000016712010289465650349_">
		<use xlink:href="#SVGID_1_"  style="overflow:visible;"/>
	</clipPath>
	<g style="clip-path:url(#SVGID_00000164488156472521626810000016712010289465650349_);">
		<polygon style="fill:#074A74;" points="-57.188,100 -0.041,0 57.107,100 		"/>
		<polygon style="fill:#065079;" points="114.253,0 57.107,100 -0.041,0 		"/>
		<polygon style="fill:#12436E;" points="57.107,100 114.253,0 171.399,100 		"/>
		<polygon style="fill:#056088;" points="228.546,0 171.399,100 114.253,0 		"/>
		<polygon style="fill:#035C82;" points="171.399,100 228.546,0 285.693,100 		"/>
		<polygon style="fill:#0A6A8D;" points="342.841,0 285.693,100 228.546,0 		"/>
		<polygon style="fill:#0F6D8A;" points="285.693,100 342.841,0 399.987,100 		"/>
		<polygon style="fill:#076385;" points="457.133,0 399.987,100 342.841,0 		"/>
		<polygon style="fill:#01517B;" points="399.987,100 457.133,0 514.279,100 		"/>
		<polygon style="fill:#00527F;" points="571.428,0 514.279,100 457.133,0 		"/>
		<polygon style="fill:#054B76;" points="514.279,100 571.428,0 628.573,100 		"/>
		<polygon style="fill:#084871;" points="685.721,0 628.573,100 571.428,0 		"/>
		<polygon style="fill:#183A65;" points="628.573,100 685.721,0 742.867,100 		"/>
		<polygon style="fill:#1B3866;" points="800.014,0 742.867,100 685.721,0 		"/>
		<polygon style="fill:#19325D;" points="742.867,100 800.014,0 857.16,100 		"/>
		<polygon style="fill:#1A2D58;" points="914.306,0 857.16,100 800.014,0 		"/>
		<polygon style="fill:#19305B;" points="857.16,100 914.306,0 971.453,100 		"/>
		<polygon style="fill:#1D3160;" points="1028.6,0 971.453,100 914.306,0 		"/>
		<polygon style="fill:#1C3462;" points="971.453,100 1028.6,0 1085.748,100 		"/>
		<polygon style="fill:#1C305D;" points="1142.895,0 1085.748,100 1028.6,0 		"/>
		<polygon style="fill:#1B335F;" points="1085.748,100 1142.895,0 1200.041,100 		"/>
		<polygon style="fill:#1C305D;" points="1257.188,0 1200.041,100 1142.895,0 		"/>
		<polygon style="fill:#1C7D9A;" points="57.107,100 -0.041,200 -57.188,100 		"/>
		<polygon style="fill:#0E7293;" points="-0.041,200 57.107,100 114.253,200 		"/>
		<polygon style="fill:#0B7293;" points="171.399,100 114.253,200 57.107,100 		"/>
		<polygon style="fill:#0B7191;" points="114.253,200 171.399,100 228.546,200 		"/>
		<polygon style="fill:#1E97A8;" points="285.693,100 228.546,200 171.399,100 		"/>
		<polygon style="fill:#11819B;" points="228.546,200 285.693,100 342.841,200 		"/>
		<polygon style="fill:#2DA2AD;" points="399.987,100 342.841,200 285.693,100 		"/>
		<polygon style="fill:#127E9A;" points="342.841,200 399.987,100 457.133,200 		"/>
		<polygon style="fill:#14849E;" points="514.279,100 457.133,200 399.987,100 		"/>
		<polygon style="fill:#0D7696;" points="457.133,200 514.279,100 571.428,200 		"/>
		<polygon style="fill:#2D9DAD;" points="628.573,100 571.428,200 514.279,100 		"/>
		<polygon style="fill:#0E7698;" points="571.428,200 628.573,100 685.721,200 		"/>
		<polygon style="fill:#0E7297;" points="742.867,100 685.721,200 628.573,100 		"/>
		<polygon style="fill:#154577;" points="685.721,200 742.867,100 800.014,200 		"/>
		<polygon style="fill:#154979;" points="857.16,100 800.014,200 742.867,100 		"/>
		<polygon style="fill:#1E3363;" points="800.014,200 857.16,100 914.306,200 		"/>
		<polygon style="fill:#2E4973;" points="971.453,100 914.306,200 857.16,100 		"/>
		<polygon style="fill:#1F2F60;" points="914.306,200 971.453,100 1028.6,200 		"/>
		<polygon style="fill:#203265;" points="1085.748,100 1028.6,200 971.453,100 		"/>
		<polygon style="fill:#1E2D5D;" points="1028.6,200 1085.748,100 1142.895,200 		"/>
		<polygon style="fill:#1E2C5C;" points="1200.041,100 1142.895,200 1085.748,100 		"/>
		<polygon style="fill:#1D2C5B;" points="1142.895,200 1200.041,100 1257.188,200 		"/>
		<polygon style="fill:#43A4B1;" points="-57.188,300 -0.041,200 57.107,300 		"/>
		<polygon style="fill:#41B1B5;" points="114.253,200 57.107,300 -0.041,200 		"/>
		<polygon style="fill:#34A9B1;" points="57.107,300 114.253,200 171.399,300 		"/>
		<polygon style="fill:#57BEBF;" points="228.546,200 171.399,300 114.253,200 		"/>
		<polygon style="fill:#43AFB5;" points="171.399,300 228.546,200 285.693,300 		"/>
		<polygon style="fill:#50BBBE;" points="342.841,200 285.693,300 228.546,200 		"/>
		<polygon style="fill:#62C2C3;" points="285.693,300 342.841,200 399.987,300 		"/>
		<polygon style="fill:#73CBCC;" points="457.133,200 399.987,300 342.841,200 		"/>
		<polygon style="fill:#5AC0C3;" points="399.987,300 457.133,200 514.279,300 		"/>
		<polygon style="fill:#73C5C8;" points="571.428,200 514.279,300 457.133,200 		"/>
		<polygon style="fill:#67C6C7;" points="514.279,300 571.428,200 628.573,300 		"/>
		<polygon style="fill:#4EAFB6;" points="685.721,200 628.573,300 571.428,200 		"/>
		<polygon style="fill:#238EA8;" points="628.573,300 685.721,200 742.867,300 		"/>
		<polygon style="fill:#178AA3;" points="800.014,200 742.867,300 685.721,200 		"/>
		<polygon style="fill:#0F7499;" points="742.867,300 800.014,200 857.16,300 		"/>
		<polygon style="fill:#137D9D;" points="914.306,200 857.16,300 800.014,200 		"/>
		<polygon style="fill:#3A6890;" points="857.16,300 914.306,200 971.453,300 		"/>
		<polygon style="fill:#066993;" points="1028.6,200 971.453,300 914.306,200 		"/>
		<polygon style="fill:#0F5081;" points="971.453,300 1028.6,200 1085.748,300 		"/>
		<polygon style="fill:#086893;" points="1142.895,200 1085.748,300 1028.6,200 		"/>
		<polygon style="fill:#194376;" points="1085.748,300 1142.895,200 1200.041,300 		"/>
		<polygon style="fill:#085686;" points="1257.188,200 1200.041,300 1142.895,200 		"/>
		<polygon style="fill:#76CBCC;" points="57.107,300 -0.041,400 -57.188,300 		"/>
		<polygon style="fill:#58B8BB;" points="-0.041,400 57.107,300 114.253,400 		"/>
		<polygon style="fill:#58C3C1;" points="171.399,300 114.253,400 57.107,300 		"/>
		<polygon style="fill:#63C0BF;" points="114.253,400 171.399,300 228.546,400 		"/>
		<polygon style="fill:#4CB3B7;" points="285.693,300 228.546,400 171.399,300 		"/>
		<polygon style="fill:#60C6C7;" points="228.546,400 285.693,300 342.841,400 		"/>
		<polygon style="fill:#5EC5C5;" points="399.987,300 342.841,400 285.693,300 		"/>
		<polygon style="fill:#7CCECE;" points="342.841,400 399.987,300 457.133,400 		"/>
		<polygon style="fill:#82CECE;" points="514.279,300 457.133,400 399.987,300 		"/>
		<polygon style="fill:#7EC1C7;" points="457.133,400 514.279,300 571.428,400 		"/>
		<polygon style="fill:#67B4B9;" points="628.573,300 571.428,400 514.279,300 		"/>
		<polygon style="fill:#65C0C3;" points="571.428,400 628.573,300 685.721,400 		"/>
		<polygon style="fill:#69BDC2;" points="742.867,300 685.721,400 628.573,300 		"/>
		<polygon style="fill:#5EB6BD;" points="685.721,400 742.867,300 800.014,400 		"/>
		<polygon style="fill:#7CCDCF;" points="857.16,300 800.014,400 742.867,300 		"/>
		<polygon style="fill:#49B5BC;" points="800.014,400 857.16,300 914.306,400 		"/>
		<polygon style="fill:#48B9C0;" points="971.453,300 914.306,400 857.16,300 		"/>
		<polygon style="fill:#1F9DAF;" points="914.306,400 971.453,300 1028.6,400 		"/>
		<polygon style="fill:#2FAEB9;" points="1085.748,300 1028.6,400 971.453,300 		"/>
		<polygon style="fill:#22A2B4;" points="1028.6,400 1085.748,300 1142.895,400 		"/>
		<polygon style="fill:#2FAFBB;" points="1200.041,300 1142.895,400 1085.748,300 		"/>
		<polygon style="fill:#1792A9;" points="1142.895,400 1200.041,300 1257.188,400 		"/>
		<polygon style="fill:#6CC2C4;" points="-57.188,500 -0.041,400 57.107,500 		"/>
		<polygon style="fill:#5EB9BB;" points="114.253,400 57.107,500 -0.041,400 		"/>
		<polygon style="fill:#5EC1C0;" points="57.107,500 114.253,400 171.399,500 		"/>
		<polygon style="fill:#319DA5;" points="228.546,400 171.399,500 114.253,400 		"/>
		<polygon style="fill:#64B4B9;" points="171.399,500 228.546,400 285.693,500 		"/>
		<polygon style="fill:#41B2B5;" points="342.841,400 285.693,500 228.546,400 		"/>
		<polygon style="fill:#65C7C6;" points="285.693,500 342.841,400 399.987,500 		"/>
		<polygon style="fill:#4CB2B6;" points="457.133,400 399.987,500 342.841,400 		"/>
		<polygon style="fill:#5BACB1;" points="399.987,500 457.133,400 514.279,500 		"/>
		<polygon style="fill:#42A2A6;" points="571.428,400 514.279,500 457.133,400 		"/>
		<polygon style="fill:#77CACC;" points="514.279,500 571.428,400 628.573,500 		"/>
		<polygon style="fill:#83C5C9;" points="685.721,400 628.573,500 571.428,400 		"/>
		<polygon style="fill:#57B1B2;" points="628.573,500 685.721,400 742.867,500 		"/>
		<polygon style="fill:#60C2C2;" points="800.014,400 742.867,500 685.721,400 		"/>
		<polygon style="fill:#5CC3C1;" points="742.867,500 800.014,400 857.16,500 		"/>
		<polygon style="fill:#3AB6B8;" points="914.306,400 857.16,500 800.014,400 		"/>
		<polygon style="fill:#54C2C4;" points="857.16,500 914.306,400 971.453,500 		"/>
		<polygon style="fill:#54C1C4;" points="1028.6,400 971.453,500 914.306,400 		"/>
		<polygon style="fill:#37B5BC;" points="971.453,500 1028.6,400 1085.748,500 		"/>
		<polygon style="fill:#39B5BB;" points="1142.895,400 1085.748,500 1028.6,400 		"/>
		<polygon style="fill:#56C2C6;" points="1085.748,500 1142.895,400 1200.041,500 		"/>
		<polygon style="fill:#4DBFC2;" points="1257.188,400 1200.041,500 1142.895,400 		"/>
		<polygon style="fill:#5BA8B2;" points="57.107,500 -0.041,600 -57.188,500 		"/>
		<polygon style="fill:#4DB2B5;" points="-0.041,600 57.107,500 114.253,600 		"/>
		<polygon style="fill:#2C919A;" points="171.399,500 114.253,600 57.107,500 		"/>
		<polygon style="fill:#198996;" points="114.253,600 171.399,500 228.546,600 		"/>
		<polygon style="fill:#257D8E;" points="285.693,500 228.546,600 171.399,500 		"/>
		<polygon style="fill:#2FA0A6;" points="228.546,600 285.693,500 342.841,600 		"/>
		<polygon style="fill:#60B9BD;" points="399.987,500 342.841,600 285.693,500 		"/>
		<polygon style="fill:#5CACB6;" points="342.841,600 399.987,500 457.133,600 		"/>
		<polygon style="fill:#448E97;" points="514.279,500 457.133,600 399.987,500 		"/>
		<polygon style="fill:#399FA6;" points="457.133,600 514.279,500 571.428,600 		"/>
		<polygon style="fill:#47A9AF;" points="628.573,500 571.428,600 514.279,500 		"/>
		<polygon style="fill:#83B5BD;" points="571.428,600 628.573,500 685.721,600 		"/>
		<polygon style="fill:#4BB8B9;" points="742.867,500 685.721,600 628.573,500 		"/>
		<polygon style="fill:#5BC0BE;" points="685.721,600 742.867,500 800.014,600 		"/>
		<polygon style="fill:#3FB8B3;" points="857.16,500 800.014,600 742.867,500 		"/>
		<polygon style="fill:#48BBBC;" points="800.014,600 857.16,500 914.306,600 		"/>
		<polygon style="fill:#5DC2C3;" points="971.453,500 914.306,600 857.16,500 		"/>
		<polygon style="fill:#6CC7C9;" points="914.306,600 971.453,500 1028.6,600 		"/>
		<polygon style="fill:#5CC1C2;" points="1085.748,500 1028.6,600 971.453,500 		"/>
		<polygon style="fill:#3EB8B9;" points="1028.6,600 1085.748,500 1142.895,600 		"/>
		<polygon style="fill:#75CCCF;" points="1200.041,500 1142.895,600 1085.748,500 		"/>
		<polygon style="fill:#61C6C9;" points="1142.895,600 1200.041,500 1257.188,600 		"/>
		<polygon style="fill:#348193;" points="-57.188,700.002 -0.041,600 57.107,700.002 		"/>
		<polygon style="fill:#2E8295;" points="114.253,600 57.107,700.002 -0.041,600 		"/>
		<polygon style="fill:#34909B;" points="57.107,700.002 114.253,600 171.399,700.002 		"/>
		<polygon style="fill:#468496;" points="228.546,600 171.399,700.002 114.253,600 		"/>
		<polygon style="fill:#4A9BA7;" points="171.399,700.002 228.546,600 285.693,700.002 		"/>
		<polygon style="fill:#55A2AC;" points="342.841,600 285.693,700.002 228.546,600 		"/>
		<polygon style="fill:#2E9CA6;" points="285.693,700.002 342.841,600 399.987,700.002 		"/>
		<polygon style="fill:#46909F;" points="457.133,600 399.987,700.002 342.841,600 		"/>
		<polygon style="fill:#509EA9;" points="399.987,700.002 457.133,600 514.279,700.002 		"/>
		<polygon style="fill:#508E9E;" points="571.428,600 514.279,700.002 457.133,600 		"/>
		<polygon style="fill:#288795;" points="514.279,700.002 571.428,600 628.573,700.002 		"/>
		<polygon style="fill:#44A0A8;" points="685.721,600 628.573,700.002 571.428,600 		"/>
		<polygon style="fill:#35AFB2;" points="628.573,700.002 685.721,600 742.867,700.002 		"/>
		<polygon style="fill:#69C1C2;" points="800.014,600 742.867,700.002 685.721,600 		"/>
		<polygon style="fill:#6DC2C4;" points="742.867,700.002 800.014,600 857.16,700.002 		"/>
		<polygon style="fill:#4CB3B9;" points="914.306,600 857.16,700.002 800.014,600 		"/>
		<polygon style="fill:#3AABAF;" points="857.16,700.002 914.306,600 971.453,700.002 		"/>
		<polygon style="fill:#5DB0B6;" points="1028.6,600 971.453,700.002 914.306,600 		"/>
		<polygon style="fill:#3CA7AE;" points="971.453,700.002 1028.6,600 1085.748,700.002 		"/>
		<polygon style="fill:#61B9BE;" points="1142.895,600 1085.748,700.002 1028.6,600 		"/>
		<polygon style="fill:#8CD1D3;" points="1085.748,700.002 1142.895,600 1200.041,700.002 		"/>
		<polygon style="fill:#6CC0C3;" points="1257.188,600 1200.041,700.002 1142.895,600 		"/>
		<polygon style="fill:#1D6986;" points="57.107,700.002 -0.041,800.001 -57.188,700.002 		"/>
		<polygon style="fill:#196885;" points="-0.041,800.001 57.107,700.002 114.253,800.001 		"/>
		<polygon style="fill:#147290;" points="171.399,700.002 114.253,800.001 57.107,700.002 		"/>
		<polygon style="fill:#1D5C7E;" points="114.253,800.001 171.399,700.002 228.546,800.001 		"/>
		<polygon style="fill:#337590;" points="285.693,700.002 228.546,800.001 171.399,700.002 		"/>
		<polygon style="fill:#60ABB7;" points="228.546,800.001 285.693,700.002 342.841,800.001 		"/>
		<polygon style="fill:#20788D;" points="399.987,700.002 342.841,800.001 285.693,700.002 		"/>
		<polygon style="fill:#4291A0;" points="342.841,800.001 399.987,700.002 457.133,800.001 		"/>
		<polygon style="fill:#588C9C;" points="514.279,700.002 457.133,800.001 399.987,700.002 		"/>
		<polygon style="fill:#3A8599;" points="457.133,800.001 514.279,700.002 571.428,800.001 		"/>
		<polygon style="fill:#3E95A3;" points="628.573,700.002 571.428,800.001 514.279,700.002 		"/>
		<polygon style="fill:#3192A0;" points="571.428,800.001 628.573,700.002 685.721,800.001 		"/>
		<polygon style="fill:#41ACB3;" points="742.867,700.002 685.721,800.001 628.573,700.002 		"/>
		<polygon style="fill:#59B7BA;" points="685.721,800.001 742.867,700.002 800.014,800.001 		"/>
		<polygon style="fill:#76BCC3;" points="857.16,700.002 800.014,800.001 742.867,700.002 		"/>
		<polygon style="fill:#46ACB3;" points="800.014,800.001 857.16,700.002 914.306,800.001 		"/>
		<polygon style="fill:#339DA6;" points="971.453,700.002 914.306,800.001 857.16,700.002 		"/>
		<polygon style="fill:#23909D;" points="914.306,800.001 971.453,700.002 1028.6,800.001 		"/>
		<polygon style="fill:#57ACB5;" points="1085.748,700.002 1028.6,800.001 971.453,700.002 		"/>
		<polygon style="fill:#4FB4B7;" points="1028.6,800.001 1085.748,700.002 1142.895,800.001 		"/>
		<polygon style="fill:#36ABB3;" points="1200.041,700.002 1142.895,800.001 1085.748,700.002 		"/>
		<polygon style="fill:#5CBBC0;" points="1142.895,800.001 1200.041,700.002 1257.188,800.001 		"/>
		<polygon style="fill:#31A0AF;" points="-57.188,900.002 -0.041,800.001 57.107,900.002 		"/>
		<polygon style="fill:#2597AB;" points="114.253,800.001 57.107,900.002 -0.041,800.001 		"/>
		<polygon style="fill:#3285A0;" points="57.107,900.002 114.253,800.001 171.399,900.002 		"/>
		<polygon style="fill:#217B9A;" points="228.546,800.001 171.399,900.002 114.253,800.001 		"/>
		<polygon style="fill:#266B89;" points="171.399,900.002 228.546,800.001 285.693,900.002 		"/>
		<polygon style="fill:#2D708C;" points="342.841,800.001 285.693,900.002 228.546,800.001 		"/>
		<polygon style="fill:#387E95;" points="285.693,900.002 342.841,800.001 399.987,900.002 		"/>
		<polygon style="fill:#2D7289;" points="457.133,800.001 399.987,900.002 342.841,800.001 		"/>
		<polygon style="fill:#3B768D;" points="399.987,900.002 457.133,800.001 514.279,900.002 		"/>
		<polygon style="fill:#43819B;" points="571.428,800.001 514.279,900.002 457.133,800.001 		"/>
		<polygon style="fill:#368298;" points="514.279,900.002 571.428,800.001 628.573,900.002 		"/>
		<polygon style="fill:#2B7B99;" points="685.721,800.001 628.573,900.002 571.428,800.001 		"/>
		<polygon style="fill:#25899D;" points="628.573,900.002 685.721,800.001 742.867,900.002 		"/>
		<polygon style="fill:#2891A2;" points="800.014,800.001 742.867,900.002 685.721,800.001 		"/>
		<polygon style="fill:#4BAEB5;" points="742.867,900.002 800.014,800.001 857.16,900.002 		"/>
		<polygon style="fill:#31AAB0;" points="914.306,800.001 857.16,900.002 800.014,800.001 		"/>
		<polygon style="fill:#239AA3;" points="857.16,900.002 914.306,800.001 971.453,900.002 		"/>
		<polygon style="fill:#1D8798;" points="1028.6,800.001 971.453,900.002 914.306,800.001 		"/>
		<polygon style="fill:#168496;" points="971.453,900.002 1028.6,800.001 1085.748,900.002 		"/>
		<polygon style="fill:#369DA9;" points="1142.895,800.001 1085.748,900.002 1028.6,800.001 		"/>
		<polygon style="fill:#2AA2AC;" points="1085.748,900.002 1142.895,800.001 1200.041,900.002 		"/>
		<polygon style="fill:#2D94A8;" points="1257.188,800.001 1200.041,900.002 1142.895,800.001 		"/>
		<polygon style="fill:#2190AB;" points="57.107,900.002 -0.041,1000 -57.188,900.002 		"/>
		<polygon style="fill:#2D8FA8;" points="-0.041,1000 57.107,900.002 114.253,1000 		"/>
		<polygon style="fill:#3085A0;" points="171.399,900.002 114.253,1000 57.107,900.002 		"/>
		<polygon style="fill:#3C8DA6;" points="114.253,1000 171.399,900.002 228.546,1000 		"/>
		<polygon style="fill:#2D8AA0;" points="285.693,900.002 228.546,1000 171.399,900.002 		"/>
		<polygon style="fill:#318B9F;" points="228.546,1000 285.693,900.002 342.841,1000 		"/>
		<polygon style="fill:#22889F;" points="399.987,900.002 342.841,1000 285.693,900.002 		"/>
		<polygon style="fill:#186884;" points="342.841,1000 399.987,900.002 457.133,1000 		"/>
		<polygon style="fill:#28658D;" points="514.279,900.002 457.133,1000 399.987,900.002 		"/>
		<polygon style="fill:#206E8D;" points="457.133,1000 514.279,900.002 571.428,1000 		"/>
		<polygon style="fill:#18879E;" points="628.573,900.002 571.428,1000 514.279,900.002 		"/>
		<polygon style="fill:#167B97;" points="571.428,1000 628.573,900.002 685.721,1000 		"/>
		<polygon style="fill:#3B95A7;" points="742.867,900.002 685.721,1000 628.573,900.002 		"/>
		<polygon style="fill:#339AAB;" points="685.721,1000 742.867,900.002 800.014,1000 		"/>
		<polygon style="fill:#37ABB4;" points="857.16,900.002 800.014,1000 742.867,900.002 		"/>
		<polygon style="fill:#39AFB5;" points="800.014,1000 857.16,900.002 914.306,1000 		"/>
		<polygon style="fill:#459BAC;" points="971.453,900.002 914.306,1000 857.16,900.002 		"/>
		<polygon style="fill:#278EA1;" points="914.306,1000 971.453,900.002 1028.6,1000 		"/>
		<polygon style="fill:#2D92A5;" points="1085.748,900.002 1028.6,1000 971.453,900.002 		"/>
		<polygon style="fill:#1C869D;" points="1028.6,1000 1085.748,900.002 1142.895,1000 		"/>
		<polygon style="fill:#2296A9;" points="1200.041,900.002 1142.895,1000 1085.748,900.002 		"/>
		<polygon style="fill:#47A7B5;" points="1142.895,1000 1200.041,900.002 1257.188,1000 		"/>
		<polygon style="fill:#1A92AB;" points="-57.188,1100 -0.041,1000 57.107,1100 		"/>
		<polygon style="fill:#1589A5;" points="114.253,1000 57.107,1100 -0.041,1000 		"/>
		<polygon style="fill:#2D9BAF;" points="57.107,1100 114.253,1000 171.399,1100 		"/>
		<polygon style="fill:#197A9A;" points="228.546,1000 171.399,1100 114.253,1000 		"/>
		<polygon style="fill:#359BAC;" points="171.399,1100 228.546,1000 285.693,1100 		"/>
		<polygon style="fill:#228AA2;" points="342.841,1000 285.693,1100 228.546,1000 		"/>
		<polygon style="fill:#2E8CA6;" points="285.693,1100 342.841,1000 399.987,1100 		"/>
		<polygon style="fill:#298FA6;" points="457.133,1000 399.987,1100 342.841,1000 		"/>
		<polygon style="fill:#197C98;" points="399.987,1100 457.133,1000 514.279,1100 		"/>
		<polygon style="fill:#208EA5;" points="571.428,1000 514.279,1100 457.133,1000 		"/>
		<polygon style="fill:#1E94A8;" points="514.279,1100 571.428,1000 628.573,1100 		"/>
		<polygon style="fill:#2F96AA;" points="685.721,1000 628.573,1100 571.428,1000 		"/>
		<polygon style="fill:#39A2B2;" points="628.573,1100 685.721,1000 742.867,1100 		"/>
		<polygon style="fill:#3AB0B8;" points="800.014,1000 742.867,1100 685.721,1000 		"/>
		<polygon style="fill:#2BABB4;" points="742.867,1100 800.014,1000 857.16,1100 		"/>
		<polygon style="fill:#3CA9B4;" points="914.306,1000 857.16,1100 800.014,1000 		"/>
		<polygon style="fill:#329EAC;" points="857.16,1100 914.306,1000 971.453,1100 		"/>
		<polygon style="fill:#4CADB9;" points="1028.6,1000 971.453,1100 914.306,1000 		"/>
		<polygon style="fill:#2298A9;" points="971.453,1100 1028.6,1000 1085.748,1100 		"/>
		<polygon style="fill:#2E97AA;" points="1142.895,1000 1085.748,1100 1028.6,1000 		"/>
		<polygon style="fill:#2CA3B1;" points="1085.748,1100 1142.895,1000 1200.041,1100 		"/>
		<polygon style="fill:#1B97AA;" points="1257.188,1000 1200.041,1100 1142.895,1000 		"/>
		<polygon style="fill:#37A5B4;" points="57.107,1100 -0.041,1200 -57.188,1100 		"/>
		<polygon style="fill:#53B6C1;" points="-0.041,1200 57.107,1100 114.253,1200 		"/>
		<polygon style="fill:#1E8BA6;" points="171.399,1100 114.253,1200 57.107,1100 		"/>
		<polygon style="fill:#187797;" points="114.253,1200 171.399,1100 228.546,1200 		"/>
		<polygon style="fill:#156F92;" points="285.693,1100 228.546,1200 171.399,1100 		"/>
		<polygon style="fill:#3699AE;" points="228.546,1200 285.693,1100 342.841,1200 		"/>
		<polygon style="fill:#2092AA;" points="399.987,1100 342.841,1200 285.693,1100 		"/>
		<polygon style="fill:#229FAF;" points="342.841,1200 399.987,1100 457.133,1200 		"/>
		<polygon style="fill:#1E94AB;" points="514.279,1100 457.133,1200 399.987,1100 		"/>
		<polygon style="fill:#2795AA;" points="457.133,1200 514.279,1100 571.428,1200 		"/>
		<polygon style="fill:#1A94AA;" points="628.573,1100 571.428,1200 514.279,1100 		"/>
		<polygon style="fill:#319CAE;" points="571.428,1200 628.573,1100 685.721,1200 		"/>
		<polygon style="fill:#309BAD;" points="742.867,1100 685.721,1200 628.573,1100 		"/>
		<polygon style="fill:#3BB0B7;" points="685.721,1200 742.867,1100 800.014,1200 		"/>
		<polygon style="fill:#4DB8C0;" points="857.16,1100 800.014,1200 742.867,1100 		"/>
		<polygon style="fill:#4CB6C2;" points="800.014,1200 857.16,1100 914.306,1200 		"/>
		<polygon style="fill:#79CACF;" points="971.453,1100 914.306,1200 857.16,1100 		"/>
		<polygon style="fill:#40B2B9;" points="914.306,1200 971.453,1100 1028.6,1200 		"/>
		<polygon style="fill:#359FAA;" points="1085.748,1100 1028.6,1200 971.453,1100 		"/>
		<polygon style="fill:#1C8EA6;" points="1028.6,1200 1085.748,1100 1142.895,1200 		"/>
		<polygon style="fill:#1A7D99;" points="1200.041,1100 1142.895,1200 1085.748,1100 		"/>
		<polygon style="fill:#249AAB;" points="1142.895,1200 1200.041,1100 1257.188,1200 		"/>
	</g>
</g>
</svg>
